<svg width="199" height="62" viewBox="0 0 199 62" fill="none" xmlns="http://www.w3.org/2000/svg">
<path fill-rule="evenodd" clip-rule="evenodd" d="M7.5 10C7.5 8.61929 8.61929 7.5 10 7.5H13.75C15.1307 7.5 16.25 8.61929 16.25 10V30C16.25 31.3807 15.1307 32.5 13.75 32.5H10C8.61929 32.5 7.5 31.3807 7.5 30V10ZM13.75 10H10V30H13.75V10Z" fill="#00B37E"/>
<path fill-rule="evenodd" clip-rule="evenodd" d="M23.75 10C23.75 8.61929 24.8693 7.5 26.25 7.5H30C31.3807 7.5 32.5 8.61929 32.5 10V30C32.5 31.3807 31.3807 32.5 30 32.5H26.25C24.8693 32.5 23.75 31.3807 23.75 30V10ZM30 10H26.25V30H30V10Z" fill="#00B37E"/>
<path fill-rule="evenodd" clip-rule="evenodd" d="M30 12.5C30 11.8096 30.5596 11.25 31.25 11.25H35C35.663 11.25 36.2989 11.5134 36.7678 11.9822C37.2366 12.4511 37.5 13.087 37.5 13.75V26.25C37.5 26.913 37.2366 27.5489 36.7678 28.0178C36.2989 28.4866 35.663 28.75 35 28.75H31.25C30.5596 28.75 30 28.1904 30 27.5C30 26.8096 30.5596 26.25 31.25 26.25H35L35 13.75L31.25 13.75C30.5596 13.75 30 13.1904 30 12.5Z" fill="#00B37E"/>
<path fill-rule="evenodd" clip-rule="evenodd" d="M3.23223 11.9822C3.70107 11.5134 4.33696 11.25 5 11.25H8.75C9.44036 11.25 10 11.8096 10 12.5C10 13.1904 9.44036 13.75 8.75 13.75L5 13.75V26.25H8.75C9.44036 26.25 10 26.8096 10 27.5C10 28.1904 9.44036 28.75 8.75 28.75H5C4.33696 28.75 3.70108 28.4866 3.23223 28.0178C2.76339 27.5489 2.5 26.913 2.5 26.25V13.75C2.5 13.087 2.76339 12.4511 3.23223 11.9822Z" fill="#00B37E"/>
<path fill-rule="evenodd" clip-rule="evenodd" d="M13.75 20C13.75 19.3096 14.3096 18.75 15 18.75H25C25.6904 18.75 26.25 19.3096 26.25 20C26.25 20.6904 25.6904 21.25 25 21.25H15C14.3096 21.25 13.75 20.6904 13.75 20Z" fill="#00B37E"/>
<path fill-rule="evenodd" clip-rule="evenodd" d="M35 20C35 19.3096 35.5596 18.75 36.25 18.75H38.75C39.4404 18.75 40 19.3096 40 20C40 20.6904 39.4404 21.25 38.75 21.25H36.25C35.5596 21.25 35 20.6904 35 20Z" fill="#00B37E"/>
<path fill-rule="evenodd" clip-rule="evenodd" d="M0 20C0 19.3096 0.559644 18.75 1.25 18.75H3.75C4.44036 18.75 5 19.3096 5 20C5 20.6904 4.44036 21.25 3.75 21.25H1.25C0.559644 21.25 0 20.6904 0 20Z" fill="#00B37E"/>
<path d="M67.1074 17.7012V20.9004H56.7168V17.7012H67.1074ZM57.9336 9.59375V29.5H53.832V9.59375H57.9336ZM70.0332 9.59375V29.5H65.9453V9.59375H70.0332ZM80.1641 29.7734C79.0156 29.7734 77.9857 29.5911 77.0742 29.2266C76.1628 28.8529 75.388 28.3379 74.75 27.6816C74.1211 27.0254 73.638 26.2643 73.3008 25.3984C72.9635 24.5234 72.7949 23.5938 72.7949 22.6094V22.0625C72.7949 20.9414 72.9544 19.916 73.2734 18.9863C73.5924 18.0566 74.0482 17.25 74.6406 16.5664C75.2422 15.8828 75.9714 15.3587 76.8281 14.9941C77.6849 14.6204 78.651 14.4336 79.7266 14.4336C80.7747 14.4336 81.7044 14.6068 82.5156 14.9531C83.3268 15.2995 84.0059 15.7917 84.5527 16.4297C85.1087 17.0677 85.528 17.8333 85.8105 18.7266C86.0931 19.6107 86.2344 20.5951 86.2344 21.6797V23.3203H74.4766V20.6953H82.3652V20.3945C82.3652 19.8477 82.265 19.36 82.0645 18.9316C81.873 18.4941 81.5814 18.1478 81.1895 17.8926C80.7975 17.6374 80.2962 17.5098 79.6855 17.5098C79.166 17.5098 78.7194 17.6237 78.3457 17.8516C77.972 18.0794 77.6667 18.3984 77.4297 18.8086C77.2018 19.2188 77.0286 19.7018 76.9102 20.2578C76.8008 20.8047 76.7461 21.4062 76.7461 22.0625V22.6094C76.7461 23.2018 76.8281 23.7487 76.9922 24.25C77.1654 24.7513 77.4069 25.1842 77.7168 25.5488C78.0358 25.9134 78.4186 26.196 78.8652 26.3965C79.321 26.597 79.8359 26.6973 80.4102 26.6973C81.1211 26.6973 81.7819 26.5605 82.3926 26.2871C83.0124 26.0046 83.5456 25.5807 83.9922 25.0156L85.9062 27.0938C85.5964 27.5404 85.1725 27.9688 84.6348 28.3789C84.1061 28.7891 83.4681 29.1263 82.7207 29.3906C81.9733 29.6458 81.1211 29.7734 80.1641 29.7734ZM96.4609 26.1641V19.5742C96.4609 19.1003 96.3835 18.6947 96.2285 18.3574C96.0736 18.0111 95.832 17.7422 95.5039 17.5508C95.1849 17.3594 94.7702 17.2637 94.2598 17.2637C93.8223 17.2637 93.444 17.3411 93.125 17.4961C92.806 17.6419 92.5599 17.8561 92.3867 18.1387C92.2135 18.4121 92.127 18.7357 92.127 19.1094H88.1895C88.1895 18.4805 88.3353 17.8835 88.627 17.3184C88.9186 16.7533 89.3424 16.2565 89.8984 15.8281C90.4544 15.3906 91.1152 15.0488 91.8809 14.8027C92.6556 14.5566 93.5215 14.4336 94.4785 14.4336C95.627 14.4336 96.6478 14.625 97.541 15.0078C98.4342 15.3906 99.1361 15.9648 99.6465 16.7305C100.166 17.4961 100.426 18.4531 100.426 19.6016V25.9316C100.426 26.7428 100.476 27.4082 100.576 27.9277C100.676 28.4382 100.822 28.8848 101.014 29.2676V29.5H97.0352C96.8438 29.099 96.6979 28.5977 96.5977 27.9961C96.5065 27.3854 96.4609 26.7747 96.4609 26.1641ZM96.9805 20.4902L97.0078 22.7188H94.8066C94.2871 22.7188 93.8359 22.778 93.4531 22.8965C93.0703 23.015 92.7559 23.1836 92.5098 23.4023C92.2637 23.612 92.0814 23.8581 91.9629 24.1406C91.8535 24.4232 91.7988 24.7331 91.7988 25.0703C91.7988 25.4076 91.8763 25.7129 92.0312 25.9863C92.1862 26.2507 92.4095 26.4603 92.7012 26.6152C92.9928 26.7611 93.3346 26.834 93.7266 26.834C94.319 26.834 94.834 26.7155 95.2715 26.4785C95.709 26.2415 96.0462 25.9499 96.2832 25.6035C96.5293 25.2572 96.6569 24.929 96.666 24.6191L97.7051 26.2871C97.5592 26.6608 97.3587 27.0482 97.1035 27.4492C96.8574 27.8503 96.543 28.2285 96.1602 28.584C95.7773 28.9303 95.3171 29.2174 94.7793 29.4453C94.2415 29.6641 93.6035 29.7734 92.8652 29.7734C91.9264 29.7734 91.0742 29.5866 90.3086 29.2129C89.5521 28.8301 88.9505 28.306 88.5039 27.6406C88.0664 26.9661 87.8477 26.2005 87.8477 25.3438C87.8477 24.569 87.9935 23.8809 88.2852 23.2793C88.5768 22.6777 89.0052 22.1719 89.5703 21.7617C90.1445 21.3424 90.86 21.028 91.7168 20.8184C92.5736 20.5996 93.5671 20.4902 94.6973 20.4902H96.9805ZM107.617 8.5V29.5H103.666V8.5H107.617ZM118.117 14.707V17.4961H109.504V14.707H118.117ZM111.637 11.0566H115.574V25.043C115.574 25.4714 115.629 25.7995 115.738 26.0273C115.857 26.2552 116.03 26.4147 116.258 26.5059C116.486 26.5879 116.773 26.6289 117.119 26.6289C117.365 26.6289 117.584 26.6198 117.775 26.6016C117.976 26.5742 118.145 26.5469 118.281 26.5195L118.295 29.418C117.958 29.5273 117.593 29.6139 117.201 29.6777C116.809 29.7415 116.376 29.7734 115.902 29.7734C115.036 29.7734 114.28 29.6322 113.633 29.3496C112.995 29.0579 112.503 28.5931 112.156 27.9551C111.81 27.3171 111.637 26.4785 111.637 25.4395V11.0566ZM124.201 8.5V29.5H120.264V8.5H124.201ZM123.641 21.584H122.561C122.57 20.554 122.706 19.6061 122.971 18.7402C123.235 17.8652 123.613 17.1087 124.105 16.4707C124.598 15.8236 125.186 15.3223 125.869 14.9668C126.562 14.6113 127.327 14.4336 128.166 14.4336C128.895 14.4336 129.556 14.5384 130.148 14.748C130.75 14.9486 131.265 15.2767 131.693 15.7324C132.131 16.179 132.468 16.7669 132.705 17.4961C132.942 18.2253 133.061 19.1094 133.061 20.1484V29.5H129.096V20.1211C129.096 19.4648 129 18.9499 128.809 18.5762C128.626 18.1934 128.357 17.9245 128.002 17.7695C127.656 17.6055 127.227 17.5234 126.717 17.5234C126.152 17.5234 125.669 17.6283 125.268 17.8379C124.876 18.0475 124.561 18.3392 124.324 18.7129C124.087 19.0775 123.914 19.5059 123.805 19.998C123.695 20.4902 123.641 21.0189 123.641 21.584ZM159.051 19.0957V26.9844C158.741 27.3581 158.262 27.7637 157.615 28.2012C156.968 28.6296 156.134 28.9987 155.113 29.3086C154.092 29.6185 152.857 29.7734 151.408 29.7734C150.123 29.7734 148.952 29.5638 147.895 29.1445C146.837 28.7161 145.926 28.0918 145.16 27.2715C144.404 26.4512 143.82 25.4486 143.41 24.2637C143 23.0697 142.795 21.707 142.795 20.1758V18.9316C142.795 17.4004 142.991 16.0378 143.383 14.8438C143.784 13.6497 144.354 12.6426 145.092 11.8223C145.83 11.002 146.71 10.3776 147.73 9.94922C148.751 9.52083 149.886 9.30664 151.135 9.30664C152.867 9.30664 154.288 9.58919 155.4 10.1543C156.512 10.7103 157.36 11.485 157.943 12.4785C158.536 13.4629 158.9 14.5931 159.037 15.8691H155.059C154.958 15.1947 154.767 14.6068 154.484 14.1055C154.202 13.6042 153.796 13.2122 153.268 12.9297C152.748 12.6471 152.074 12.5059 151.244 12.5059C150.561 12.5059 149.95 12.6471 149.412 12.9297C148.883 13.2031 148.437 13.6087 148.072 14.1465C147.708 14.6842 147.43 15.3496 147.238 16.1426C147.047 16.9355 146.951 17.8561 146.951 18.9043V20.1758C146.951 21.2148 147.051 22.1354 147.252 22.9375C147.452 23.7305 147.749 24.4004 148.141 24.9473C148.542 25.485 149.034 25.8906 149.617 26.1641C150.201 26.4375 150.88 26.5742 151.654 26.5742C152.301 26.5742 152.839 26.5195 153.268 26.4102C153.705 26.3008 154.056 26.1686 154.32 26.0137C154.594 25.8496 154.803 25.6947 154.949 25.5488V22.0215H151.203V19.0957H159.051ZM166.502 27.832L170.426 14.707H174.65L168.703 31.7285C168.576 32.1022 168.402 32.5033 168.184 32.9316C167.974 33.36 167.687 33.7656 167.322 34.1484C166.967 34.5404 166.516 34.8594 165.969 35.1055C165.431 35.3516 164.77 35.4746 163.986 35.4746C163.613 35.4746 163.307 35.4518 163.07 35.4062C162.833 35.3607 162.551 35.2969 162.223 35.2148V32.3301C162.323 32.3301 162.428 32.3301 162.537 32.3301C162.646 32.3392 162.751 32.3438 162.852 32.3438C163.371 32.3438 163.795 32.2845 164.123 32.166C164.451 32.0475 164.715 31.8652 164.916 31.6191C165.117 31.3822 165.276 31.0723 165.395 30.6895L166.502 27.832ZM164.861 14.707L168.074 25.4258L168.635 29.5957L165.955 29.8828L160.637 14.707H164.861ZM180.16 17.7695V29.5H176.209V14.707H179.914L180.16 17.7695ZM179.613 21.584H178.52C178.52 20.554 178.643 19.6061 178.889 18.7402C179.144 17.8652 179.513 17.1087 179.996 16.4707C180.488 15.8236 181.094 15.3223 181.814 14.9668C182.535 14.6113 183.368 14.4336 184.316 14.4336C184.973 14.4336 185.574 14.5339 186.121 14.7344C186.668 14.9258 187.137 15.2311 187.529 15.6504C187.93 16.0605 188.24 16.5983 188.459 17.2637C188.678 17.9199 188.787 18.7083 188.787 19.6289V29.5H184.85V20.0664C184.85 19.3919 184.758 18.8724 184.576 18.5078C184.394 18.1432 184.134 17.888 183.797 17.7422C183.469 17.5964 183.072 17.5234 182.607 17.5234C182.097 17.5234 181.65 17.6283 181.268 17.8379C180.894 18.0475 180.584 18.3392 180.338 18.7129C180.092 19.0775 179.91 19.5059 179.791 19.998C179.673 20.4902 179.613 21.0189 179.613 21.584ZM188.418 21.1328L187.01 21.3105C187.01 20.3444 187.128 19.4466 187.365 18.6172C187.611 17.7878 187.971 17.0586 188.445 16.4297C188.928 15.8008 189.525 15.3132 190.236 14.9668C190.947 14.6113 191.768 14.4336 192.697 14.4336C193.408 14.4336 194.055 14.5384 194.639 14.748C195.222 14.9486 195.719 15.2721 196.129 15.7188C196.548 16.1562 196.867 16.7305 197.086 17.4414C197.314 18.1523 197.428 19.0228 197.428 20.0527V29.5H193.477V20.0527C193.477 19.3691 193.385 18.8496 193.203 18.4941C193.03 18.1296 192.775 17.8789 192.438 17.7422C192.109 17.5964 191.717 17.5234 191.262 17.5234C190.788 17.5234 190.373 17.6191 190.018 17.8105C189.662 17.9928 189.366 18.248 189.129 18.5762C188.892 18.9043 188.714 19.2871 188.596 19.7246C188.477 20.153 188.418 20.6224 188.418 21.1328Z" fill="white"/>
<path d="M6.8457 46.0469V56H5.54688V46.0469H6.8457ZM10.0449 46.0469V47.127H2.35449V46.0469H10.0449ZM12.0752 49.7656V56H10.8105V48.6035H12.041L12.0752 49.7656ZM14.3857 48.5625L14.3789 49.7383C14.2741 49.7155 14.1738 49.7018 14.0781 49.6973C13.987 49.6882 13.8822 49.6836 13.7637 49.6836C13.472 49.6836 13.2145 49.7292 12.9912 49.8203C12.7679 49.9115 12.5788 50.0391 12.4238 50.2031C12.2689 50.3672 12.1458 50.5632 12.0547 50.791C11.9681 51.0143 11.9111 51.2604 11.8838 51.5293L11.5283 51.7344C11.5283 51.2878 11.5716 50.8685 11.6582 50.4766C11.7493 50.0846 11.8883 49.7383 12.0752 49.4375C12.262 49.1322 12.499 48.8952 12.7861 48.7266C13.0778 48.5534 13.4242 48.4668 13.8252 48.4668C13.9163 48.4668 14.0212 48.4782 14.1396 48.501C14.2581 48.5192 14.3402 48.5397 14.3857 48.5625ZM18.4873 56.1367C17.9723 56.1367 17.5052 56.0501 17.0859 55.877C16.6712 55.6992 16.3135 55.4508 16.0127 55.1318C15.7165 54.8128 15.4886 54.4346 15.3291 53.9971C15.1696 53.5596 15.0898 53.0811 15.0898 52.5615V52.2744C15.0898 51.6729 15.1787 51.1374 15.3564 50.668C15.5342 50.194 15.7757 49.793 16.0811 49.4648C16.3864 49.1367 16.7327 48.8883 17.1201 48.7197C17.5075 48.5511 17.9085 48.4668 18.3232 48.4668C18.8519 48.4668 19.3076 48.5579 19.6904 48.7402C20.0778 48.9225 20.3945 49.1777 20.6406 49.5059C20.8867 49.8294 21.069 50.2122 21.1875 50.6543C21.306 51.0918 21.3652 51.5703 21.3652 52.0898V52.6572H15.8418V51.625H20.1006V51.5293C20.0824 51.2012 20.014 50.8822 19.8955 50.5723C19.7816 50.2624 19.5993 50.0072 19.3486 49.8066C19.098 49.6061 18.7562 49.5059 18.3232 49.5059C18.0361 49.5059 17.7718 49.5674 17.5303 49.6904C17.2887 49.8089 17.0814 49.9867 16.9082 50.2236C16.735 50.4606 16.6006 50.75 16.5049 51.0918C16.4092 51.4336 16.3613 51.8278 16.3613 52.2744V52.5615C16.3613 52.9124 16.4092 53.2428 16.5049 53.5527C16.6051 53.8581 16.7487 54.127 16.9355 54.3594C17.127 54.5918 17.3571 54.7741 17.626 54.9062C17.8994 55.0384 18.2093 55.1045 18.5557 55.1045C19.0023 55.1045 19.3805 55.0133 19.6904 54.8311C20.0003 54.6488 20.2715 54.4049 20.5039 54.0996L21.2695 54.708C21.11 54.9495 20.9072 55.1797 20.6611 55.3984C20.415 55.6172 20.112 55.7949 19.752 55.9316C19.3965 56.0684 18.9749 56.1367 18.4873 56.1367ZM24.2158 48.6035V56H22.9443V48.6035H24.2158ZM22.8486 46.6416C22.8486 46.4365 22.9102 46.2633 23.0332 46.1221C23.1608 45.9808 23.3477 45.9102 23.5938 45.9102C23.8353 45.9102 24.0199 45.9808 24.1475 46.1221C24.2796 46.2633 24.3457 46.4365 24.3457 46.6416C24.3457 46.8376 24.2796 47.0062 24.1475 47.1475C24.0199 47.2842 23.8353 47.3525 23.5938 47.3525C23.3477 47.3525 23.1608 47.2842 23.0332 47.1475C22.9102 47.0062 22.8486 46.8376 22.8486 46.6416ZM27.5107 50.1826V56H26.2461V48.6035H27.4424L27.5107 50.1826ZM27.21 52.0215L26.6836 52.001C26.6882 51.4951 26.7633 51.028 26.9092 50.5996C27.055 50.1667 27.2601 49.7907 27.5244 49.4717C27.7887 49.1527 28.1032 48.9066 28.4678 48.7334C28.8369 48.5557 29.2448 48.4668 29.6914 48.4668C30.056 48.4668 30.3841 48.5169 30.6758 48.6172C30.9674 48.7129 31.2158 48.8678 31.4209 49.082C31.6305 49.2962 31.79 49.5742 31.8994 49.916C32.0088 50.2533 32.0635 50.6657 32.0635 51.1533V56H30.792V51.1396C30.792 50.7523 30.735 50.4424 30.6211 50.21C30.5072 49.973 30.3408 49.8021 30.1221 49.6973C29.9033 49.5879 29.6344 49.5332 29.3154 49.5332C29.001 49.5332 28.7139 49.5993 28.4541 49.7314C28.1989 49.8636 27.9779 50.0459 27.791 50.2783C27.6087 50.5107 27.4652 50.7773 27.3604 51.0781C27.2601 51.3743 27.21 51.6888 27.21 52.0215ZM37.0537 56.1367C36.5387 56.1367 36.0716 56.0501 35.6523 55.877C35.2376 55.6992 34.8799 55.4508 34.5791 55.1318C34.2829 54.8128 34.055 54.4346 33.8955 53.9971C33.736 53.5596 33.6562 53.0811 33.6562 52.5615V52.2744C33.6562 51.6729 33.7451 51.1374 33.9229 50.668C34.1006 50.194 34.3421 49.793 34.6475 49.4648C34.9528 49.1367 35.2992 48.8883 35.6865 48.7197C36.0739 48.5511 36.4749 48.4668 36.8896 48.4668C37.4183 48.4668 37.874 48.5579 38.2568 48.7402C38.6442 48.9225 38.9609 49.1777 39.207 49.5059C39.4531 49.8294 39.6354 50.2122 39.7539 50.6543C39.8724 51.0918 39.9316 51.5703 39.9316 52.0898V52.6572H34.4082V51.625H38.667V51.5293C38.6488 51.2012 38.5804 50.8822 38.4619 50.5723C38.348 50.2624 38.1657 50.0072 37.915 49.8066C37.6644 49.6061 37.3226 49.5059 36.8896 49.5059C36.6025 49.5059 36.3382 49.5674 36.0967 49.6904C35.8551 49.8089 35.6478 49.9867 35.4746 50.2236C35.3014 50.4606 35.167 50.75 35.0713 51.0918C34.9756 51.4336 34.9277 51.8278 34.9277 52.2744V52.5615C34.9277 52.9124 34.9756 53.2428 35.0713 53.5527C35.1715 53.8581 35.3151 54.127 35.502 54.3594C35.6934 54.5918 35.9235 54.7741 36.1924 54.9062C36.4658 55.0384 36.7757 55.1045 37.1221 55.1045C37.5687 55.1045 37.9469 55.0133 38.2568 54.8311C38.5667 54.6488 38.8379 54.4049 39.0703 54.0996L39.8359 54.708C39.6764 54.9495 39.4736 55.1797 39.2275 55.3984C38.9814 55.6172 38.6784 55.7949 38.3184 55.9316C37.9629 56.0684 37.5413 56.1367 37.0537 56.1367ZM49.1875 54.0381C49.1875 53.8558 49.1465 53.6872 49.0645 53.5322C48.987 53.3727 48.8252 53.2292 48.5791 53.1016C48.3376 52.9694 47.973 52.8555 47.4854 52.7598C47.0752 52.6732 46.7038 52.5706 46.3711 52.4521C46.043 52.3337 45.7627 52.1901 45.5303 52.0215C45.3024 51.8529 45.127 51.6546 45.0039 51.4268C44.8809 51.1989 44.8193 50.9323 44.8193 50.627C44.8193 50.3353 44.8831 50.0596 45.0107 49.7998C45.1429 49.54 45.3275 49.3099 45.5645 49.1094C45.806 48.9089 46.0954 48.7516 46.4326 48.6377C46.7699 48.5238 47.1458 48.4668 47.5605 48.4668C48.153 48.4668 48.6589 48.5716 49.0781 48.7812C49.4974 48.9909 49.8187 49.2712 50.042 49.6221C50.2653 49.9684 50.377 50.3535 50.377 50.7773H49.1123C49.1123 50.5723 49.0508 50.374 48.9277 50.1826C48.8092 49.9867 48.6338 49.8249 48.4014 49.6973C48.1735 49.5697 47.8932 49.5059 47.5605 49.5059C47.2096 49.5059 46.9248 49.5605 46.7061 49.6699C46.4919 49.7747 46.3346 49.9092 46.2344 50.0732C46.1387 50.2373 46.0908 50.4105 46.0908 50.5928C46.0908 50.7295 46.1136 50.8525 46.1592 50.9619C46.2093 51.0667 46.2959 51.1647 46.4189 51.2559C46.542 51.3424 46.7152 51.4245 46.9385 51.502C47.1618 51.5794 47.4466 51.6569 47.793 51.7344C48.3991 51.8711 48.8981 52.0352 49.29 52.2266C49.682 52.418 49.9736 52.6527 50.165 52.9307C50.3564 53.2087 50.4521 53.5459 50.4521 53.9424C50.4521 54.266 50.3838 54.5622 50.2471 54.8311C50.1149 55.0999 49.9212 55.3324 49.666 55.5283C49.4154 55.7197 49.1146 55.8701 48.7637 55.9795C48.4173 56.0843 48.0277 56.1367 47.5947 56.1367C46.943 56.1367 46.3916 56.0205 45.9404 55.7881C45.4893 55.5557 45.1475 55.2549 44.915 54.8857C44.6826 54.5166 44.5664 54.127 44.5664 53.7168H45.8379C45.8561 54.0632 45.9564 54.3389 46.1387 54.5439C46.321 54.7445 46.5443 54.888 46.8086 54.9746C47.0729 55.0566 47.335 55.0977 47.5947 55.0977C47.9411 55.0977 48.2305 55.0521 48.4629 54.9609C48.6999 54.8698 48.8799 54.7445 49.0029 54.585C49.126 54.4255 49.1875 54.2432 49.1875 54.0381ZM56.6387 54.291V48.6035H57.9102V56H56.7002L56.6387 54.291ZM56.8779 52.7324L57.4043 52.7188C57.4043 53.2109 57.3519 53.6667 57.2471 54.0859C57.1468 54.5007 56.9827 54.8607 56.7549 55.166C56.527 55.4714 56.2285 55.7106 55.8594 55.8838C55.4902 56.0524 55.0413 56.1367 54.5127 56.1367C54.1527 56.1367 53.8223 56.0843 53.5215 55.9795C53.2253 55.8747 52.9701 55.7129 52.7559 55.4941C52.5417 55.2754 52.3753 54.9906 52.2568 54.6396C52.1429 54.2887 52.0859 53.8672 52.0859 53.375V48.6035H53.3506V53.3887C53.3506 53.7214 53.387 53.9971 53.46 54.2158C53.5374 54.43 53.64 54.6009 53.7676 54.7285C53.8997 54.8516 54.0456 54.9382 54.2051 54.9883C54.3691 55.0384 54.5378 55.0635 54.7109 55.0635C55.2487 55.0635 55.6748 54.9609 55.9893 54.7559C56.3037 54.5462 56.5293 54.266 56.666 53.915C56.8073 53.5596 56.8779 53.1654 56.8779 52.7324ZM64.1992 54.7354V50.9277C64.1992 50.6361 64.14 50.3831 64.0215 50.1689C63.9076 49.9502 63.7344 49.7816 63.502 49.6631C63.2695 49.5446 62.9824 49.4854 62.6406 49.4854C62.3216 49.4854 62.0413 49.54 61.7998 49.6494C61.5628 49.7588 61.376 49.9023 61.2393 50.0801C61.1071 50.2578 61.041 50.4492 61.041 50.6543H59.7764C59.7764 50.39 59.8447 50.1279 59.9814 49.8682C60.1182 49.6084 60.3141 49.3737 60.5693 49.1641C60.8291 48.9499 61.139 48.7812 61.499 48.6582C61.8636 48.5306 62.2692 48.4668 62.7158 48.4668C63.2536 48.4668 63.7275 48.5579 64.1377 48.7402C64.5524 48.9225 64.876 49.1982 65.1084 49.5674C65.3454 49.932 65.4639 50.39 65.4639 50.9414V54.3867C65.4639 54.6328 65.4844 54.8949 65.5254 55.1729C65.571 55.4508 65.637 55.6901 65.7236 55.8906V56H64.4043C64.3405 55.8542 64.2904 55.6605 64.2539 55.4189C64.2174 55.1729 64.1992 54.945 64.1992 54.7354ZM64.418 51.5156L64.4316 52.4043H63.1533C62.7933 52.4043 62.472 52.4339 62.1895 52.4932C61.9069 52.5479 61.6699 52.6322 61.4785 52.7461C61.2871 52.86 61.1413 53.0036 61.041 53.1768C60.9408 53.3454 60.8906 53.5436 60.8906 53.7715C60.8906 54.0039 60.943 54.2158 61.0479 54.4072C61.1527 54.5986 61.3099 54.7513 61.5195 54.8652C61.7337 54.9746 61.9958 55.0293 62.3057 55.0293C62.693 55.0293 63.0348 54.9473 63.3311 54.7832C63.6273 54.6191 63.862 54.4186 64.0352 54.1816C64.2129 53.9447 64.3086 53.7145 64.3223 53.4912L64.8623 54.0996C64.8304 54.291 64.7438 54.5029 64.6025 54.7354C64.4613 54.9678 64.2721 55.1911 64.0352 55.4053C63.8027 55.6149 63.5247 55.7904 63.2012 55.9316C62.8822 56.0684 62.5221 56.1367 62.1211 56.1367C61.6198 56.1367 61.18 56.0387 60.8018 55.8428C60.4281 55.6468 60.1364 55.3848 59.9268 55.0566C59.7217 54.724 59.6191 54.3525 59.6191 53.9424C59.6191 53.5459 59.6966 53.1973 59.8516 52.8965C60.0065 52.5911 60.2298 52.3382 60.5215 52.1377C60.8132 51.9326 61.1641 51.7777 61.5742 51.6729C61.9844 51.568 62.4424 51.5156 62.9482 51.5156H64.418ZM72.1836 50.0732V56H70.9121V48.6035H72.1152L72.1836 50.0732ZM71.9238 52.0215L71.3359 52.001C71.3405 51.4951 71.4066 51.028 71.5342 50.5996C71.6618 50.1667 71.8509 49.7907 72.1016 49.4717C72.3522 49.1527 72.6644 48.9066 73.0381 48.7334C73.4118 48.5557 73.8447 48.4668 74.3369 48.4668C74.6833 48.4668 75.0023 48.5169 75.2939 48.6172C75.5856 48.7129 75.8385 48.8656 76.0527 49.0752C76.2669 49.2848 76.4333 49.5537 76.5518 49.8818C76.6702 50.21 76.7295 50.6064 76.7295 51.0713V56H75.4648V51.1328C75.4648 50.7454 75.3988 50.4355 75.2666 50.2031C75.139 49.9707 74.9567 49.8021 74.7197 49.6973C74.4827 49.5879 74.2048 49.5332 73.8857 49.5332C73.512 49.5332 73.1999 49.5993 72.9492 49.7314C72.6986 49.8636 72.498 50.0459 72.3477 50.2783C72.1973 50.5107 72.0879 50.7773 72.0195 51.0781C71.9557 51.3743 71.9238 51.6888 71.9238 52.0215ZM76.7158 51.3242L75.8682 51.584C75.8727 51.1784 75.9388 50.7887 76.0664 50.415C76.1986 50.0413 76.3877 49.7087 76.6338 49.417C76.8844 49.1253 77.1921 48.8952 77.5566 48.7266C77.9212 48.5534 78.3382 48.4668 78.8076 48.4668C79.2041 48.4668 79.555 48.5192 79.8604 48.624C80.1702 48.7288 80.43 48.8906 80.6396 49.1094C80.8538 49.3236 81.0156 49.5993 81.125 49.9365C81.2344 50.2738 81.2891 50.6748 81.2891 51.1396V56H80.0176V51.126C80.0176 50.7113 79.9515 50.39 79.8193 50.1621C79.6917 49.9297 79.5094 49.7679 79.2725 49.6768C79.04 49.5811 78.762 49.5332 78.4385 49.5332C78.1605 49.5332 77.9144 49.5811 77.7002 49.6768C77.486 49.7725 77.306 49.9046 77.1602 50.0732C77.0143 50.2373 76.9027 50.4264 76.8252 50.6406C76.7523 50.8548 76.7158 51.0827 76.7158 51.3242ZM86.2725 56.1367C85.7575 56.1367 85.2904 56.0501 84.8711 55.877C84.4564 55.6992 84.0986 55.4508 83.7979 55.1318C83.5016 54.8128 83.2738 54.4346 83.1143 53.9971C82.9548 53.5596 82.875 53.0811 82.875 52.5615V52.2744C82.875 51.6729 82.9639 51.1374 83.1416 50.668C83.3193 50.194 83.5609 49.793 83.8662 49.4648C84.1715 49.1367 84.5179 48.8883 84.9053 48.7197C85.2926 48.5511 85.6937 48.4668 86.1084 48.4668C86.637 48.4668 87.0928 48.5579 87.4756 48.7402C87.863 48.9225 88.1797 49.1777 88.4258 49.5059C88.6719 49.8294 88.8542 50.2122 88.9727 50.6543C89.0911 51.0918 89.1504 51.5703 89.1504 52.0898V52.6572H83.627V51.625H87.8857V51.5293C87.8675 51.2012 87.7992 50.8822 87.6807 50.5723C87.5667 50.2624 87.3844 50.0072 87.1338 49.8066C86.8831 49.6061 86.5413 49.5059 86.1084 49.5059C85.8213 49.5059 85.557 49.5674 85.3154 49.6904C85.0739 49.8089 84.8665 49.9867 84.6934 50.2236C84.5202 50.4606 84.3857 50.75 84.29 51.0918C84.1943 51.4336 84.1465 51.8278 84.1465 52.2744V52.5615C84.1465 52.9124 84.1943 53.2428 84.29 53.5527C84.3903 53.8581 84.5339 54.127 84.7207 54.3594C84.9121 54.5918 85.1423 54.7741 85.4111 54.9062C85.6846 55.0384 85.9945 55.1045 86.3408 55.1045C86.7874 55.1045 87.1657 55.0133 87.4756 54.8311C87.7855 54.6488 88.0566 54.4049 88.2891 54.0996L89.0547 54.708C88.8952 54.9495 88.6924 55.1797 88.4463 55.3984C88.2002 55.6172 87.8971 55.7949 87.5371 55.9316C87.1816 56.0684 86.7601 56.1367 86.2725 56.1367ZM91.8916 50.1826V56H90.627V48.6035H91.8232L91.8916 50.1826ZM91.5908 52.0215L91.0645 52.001C91.069 51.4951 91.1442 51.028 91.29 50.5996C91.4359 50.1667 91.641 49.7907 91.9053 49.4717C92.1696 49.1527 92.484 48.9066 92.8486 48.7334C93.2178 48.5557 93.6257 48.4668 94.0723 48.4668C94.4368 48.4668 94.765 48.5169 95.0566 48.6172C95.3483 48.7129 95.5967 48.8678 95.8018 49.082C96.0114 49.2962 96.1709 49.5742 96.2803 49.916C96.3896 50.2533 96.4443 50.6657 96.4443 51.1533V56H95.1729V51.1396C95.1729 50.7523 95.1159 50.4424 95.002 50.21C94.888 49.973 94.7217 49.8021 94.5029 49.6973C94.2842 49.5879 94.0153 49.5332 93.6963 49.5332C93.3818 49.5332 93.0947 49.5993 92.835 49.7314C92.5798 49.8636 92.3587 50.0459 92.1719 50.2783C91.9896 50.5107 91.846 50.7773 91.7412 51.0781C91.641 51.3743 91.5908 51.6888 91.5908 52.0215ZM101.462 48.6035V49.5742H97.4629V48.6035H101.462ZM98.8164 46.8057H100.081V54.168C100.081 54.4186 100.12 54.6077 100.197 54.7354C100.275 54.863 100.375 54.9473 100.498 54.9883C100.621 55.0293 100.753 55.0498 100.895 55.0498C100.999 55.0498 101.109 55.0407 101.223 55.0225C101.341 54.9997 101.43 54.9814 101.489 54.9678L101.496 56C101.396 56.0319 101.264 56.0615 101.1 56.0889C100.94 56.1208 100.746 56.1367 100.519 56.1367C100.209 56.1367 99.9238 56.0752 99.6641 55.9521C99.4043 55.8291 99.1969 55.624 99.042 55.3369C98.8916 55.0452 98.8164 54.6533 98.8164 54.1611V46.8057ZM106.015 56.1367C105.5 56.1367 105.033 56.0501 104.613 55.877C104.199 55.6992 103.841 55.4508 103.54 55.1318C103.244 54.8128 103.016 54.4346 102.856 53.9971C102.697 53.5596 102.617 53.0811 102.617 52.5615V52.2744C102.617 51.6729 102.706 51.1374 102.884 50.668C103.062 50.194 103.303 49.793 103.608 49.4648C103.914 49.1367 104.26 48.8883 104.647 48.7197C105.035 48.5511 105.436 48.4668 105.851 48.4668C106.379 48.4668 106.835 48.5579 107.218 48.7402C107.605 48.9225 107.922 49.1777 108.168 49.5059C108.414 49.8294 108.596 50.2122 108.715 50.6543C108.833 51.0918 108.893 51.5703 108.893 52.0898V52.6572H103.369V51.625H107.628V51.5293C107.61 51.2012 107.541 50.8822 107.423 50.5723C107.309 50.2624 107.127 50.0072 106.876 49.8066C106.625 49.6061 106.284 49.5059 105.851 49.5059C105.563 49.5059 105.299 49.5674 105.058 49.6904C104.816 49.8089 104.609 49.9867 104.436 50.2236C104.262 50.4606 104.128 50.75 104.032 51.0918C103.937 51.4336 103.889 51.8278 103.889 52.2744V52.5615C103.889 52.9124 103.937 53.2428 104.032 53.5527C104.132 53.8581 104.276 54.127 104.463 54.3594C104.654 54.5918 104.884 54.7741 105.153 54.9062C105.427 55.0384 105.737 55.1045 106.083 55.1045C106.53 55.1045 106.908 55.0133 107.218 54.8311C107.528 54.6488 107.799 54.4049 108.031 54.0996L108.797 54.708C108.637 54.9495 108.435 55.1797 108.188 55.3984C107.942 55.6172 107.639 55.7949 107.279 55.9316C106.924 56.0684 106.502 56.1367 106.015 56.1367ZM116.911 56.1367C116.396 56.1367 115.929 56.0501 115.51 55.877C115.095 55.6992 114.737 55.4508 114.437 55.1318C114.14 54.8128 113.912 54.4346 113.753 53.9971C113.593 53.5596 113.514 53.0811 113.514 52.5615V52.2744C113.514 51.6729 113.603 51.1374 113.78 50.668C113.958 50.194 114.2 49.793 114.505 49.4648C114.81 49.1367 115.157 48.8883 115.544 48.7197C115.931 48.5511 116.332 48.4668 116.747 48.4668C117.276 48.4668 117.731 48.5579 118.114 48.7402C118.502 48.9225 118.818 49.1777 119.064 49.5059C119.311 49.8294 119.493 50.2122 119.611 50.6543C119.73 51.0918 119.789 51.5703 119.789 52.0898V52.6572H114.266V51.625H118.524V51.5293C118.506 51.2012 118.438 50.8822 118.319 50.5723C118.205 50.2624 118.023 50.0072 117.772 49.8066C117.522 49.6061 117.18 49.5059 116.747 49.5059C116.46 49.5059 116.196 49.5674 115.954 49.6904C115.713 49.8089 115.505 49.9867 115.332 50.2236C115.159 50.4606 115.024 50.75 114.929 51.0918C114.833 51.4336 114.785 51.8278 114.785 52.2744V52.5615C114.785 52.9124 114.833 53.2428 114.929 53.5527C115.029 53.8581 115.173 54.127 115.359 54.3594C115.551 54.5918 115.781 54.7741 116.05 54.9062C116.323 55.0384 116.633 55.1045 116.979 55.1045C117.426 55.1045 117.804 55.0133 118.114 54.8311C118.424 54.6488 118.695 54.4049 118.928 54.0996L119.693 54.708C119.534 54.9495 119.331 55.1797 119.085 55.3984C118.839 55.6172 118.536 55.7949 118.176 55.9316C117.82 56.0684 117.399 56.1367 116.911 56.1367ZM124.403 52.3838V52.2266C124.403 51.6934 124.481 51.1989 124.636 50.7432C124.791 50.2829 125.014 49.8841 125.306 49.5469C125.597 49.2051 125.951 48.9408 126.365 48.7539C126.78 48.5625 127.245 48.4668 127.76 48.4668C128.279 48.4668 128.746 48.5625 129.161 48.7539C129.58 48.9408 129.936 49.2051 130.228 49.5469C130.524 49.8841 130.749 50.2829 130.904 50.7432C131.059 51.1989 131.137 51.6934 131.137 52.2266V52.3838C131.137 52.917 131.059 53.4115 130.904 53.8672C130.749 54.3229 130.524 54.7217 130.228 55.0635C129.936 55.4007 129.583 55.665 129.168 55.8564C128.758 56.0433 128.293 56.1367 127.773 56.1367C127.254 56.1367 126.787 56.0433 126.372 55.8564C125.957 55.665 125.602 55.4007 125.306 55.0635C125.014 54.7217 124.791 54.3229 124.636 53.8672C124.481 53.4115 124.403 52.917 124.403 52.3838ZM125.668 52.2266V52.3838C125.668 52.7529 125.711 53.1016 125.798 53.4297C125.884 53.7533 126.014 54.0404 126.188 54.291C126.365 54.5417 126.586 54.7399 126.851 54.8857C127.115 55.027 127.423 55.0977 127.773 55.0977C128.12 55.0977 128.423 55.027 128.683 54.8857C128.947 54.7399 129.166 54.5417 129.339 54.291C129.512 54.0404 129.642 53.7533 129.729 53.4297C129.82 53.1016 129.865 52.7529 129.865 52.3838V52.2266C129.865 51.862 129.82 51.5179 129.729 51.1943C129.642 50.8662 129.51 50.5768 129.332 50.3262C129.159 50.071 128.94 49.8704 128.676 49.7246C128.416 49.5788 128.111 49.5059 127.76 49.5059C127.413 49.5059 127.108 49.5788 126.844 49.7246C126.584 49.8704 126.365 50.071 126.188 50.3262C126.014 50.5768 125.884 50.8662 125.798 51.1943C125.711 51.5179 125.668 51.862 125.668 52.2266ZM140.502 54.0381C140.502 53.8558 140.461 53.6872 140.379 53.5322C140.301 53.3727 140.14 53.2292 139.894 53.1016C139.652 52.9694 139.287 52.8555 138.8 52.7598C138.39 52.6732 138.018 52.5706 137.686 52.4521C137.357 52.3337 137.077 52.1901 136.845 52.0215C136.617 51.8529 136.441 51.6546 136.318 51.4268C136.195 51.1989 136.134 50.9323 136.134 50.627C136.134 50.3353 136.198 50.0596 136.325 49.7998C136.457 49.54 136.642 49.3099 136.879 49.1094C137.12 48.9089 137.41 48.7516 137.747 48.6377C138.084 48.5238 138.46 48.4668 138.875 48.4668C139.467 48.4668 139.973 48.5716 140.393 48.7812C140.812 48.9909 141.133 49.2712 141.356 49.6221C141.58 49.9684 141.691 50.3535 141.691 50.7773H140.427C140.427 50.5723 140.365 50.374 140.242 50.1826C140.124 49.9867 139.948 49.8249 139.716 49.6973C139.488 49.5697 139.208 49.5059 138.875 49.5059C138.524 49.5059 138.239 49.5605 138.021 49.6699C137.806 49.7747 137.649 49.9092 137.549 50.0732C137.453 50.2373 137.405 50.4105 137.405 50.5928C137.405 50.7295 137.428 50.8525 137.474 50.9619C137.524 51.0667 137.61 51.1647 137.733 51.2559C137.856 51.3424 138.03 51.4245 138.253 51.502C138.476 51.5794 138.761 51.6569 139.107 51.7344C139.714 51.8711 140.213 52.0352 140.604 52.2266C140.996 52.418 141.288 52.6527 141.479 52.9307C141.671 53.2087 141.767 53.5459 141.767 53.9424C141.767 54.266 141.698 54.5622 141.562 54.8311C141.429 55.0999 141.236 55.3324 140.98 55.5283C140.73 55.7197 140.429 55.8701 140.078 55.9795C139.732 56.0843 139.342 56.1367 138.909 56.1367C138.257 56.1367 137.706 56.0205 137.255 55.7881C136.804 55.5557 136.462 55.2549 136.229 54.8857C135.997 54.5166 135.881 54.127 135.881 53.7168H137.152C137.171 54.0632 137.271 54.3389 137.453 54.5439C137.635 54.7445 137.859 54.888 138.123 54.9746C138.387 55.0566 138.649 55.0977 138.909 55.0977C139.256 55.0977 139.545 55.0521 139.777 54.9609C140.014 54.8698 140.194 54.7445 140.317 54.585C140.44 54.4255 140.502 54.2432 140.502 54.0381ZM146.497 56.1367C145.982 56.1367 145.515 56.0501 145.096 55.877C144.681 55.6992 144.323 55.4508 144.022 55.1318C143.726 54.8128 143.498 54.4346 143.339 53.9971C143.179 53.5596 143.1 53.0811 143.1 52.5615V52.2744C143.1 51.6729 143.188 51.1374 143.366 50.668C143.544 50.194 143.785 49.793 144.091 49.4648C144.396 49.1367 144.743 48.8883 145.13 48.7197C145.517 48.5511 145.918 48.4668 146.333 48.4668C146.862 48.4668 147.317 48.5579 147.7 48.7402C148.088 48.9225 148.404 49.1777 148.65 49.5059C148.896 49.8294 149.079 50.2122 149.197 50.6543C149.316 51.0918 149.375 51.5703 149.375 52.0898V52.6572H143.852V51.625H148.11V51.5293C148.092 51.2012 148.024 50.8822 147.905 50.5723C147.791 50.2624 147.609 50.0072 147.358 49.8066C147.108 49.6061 146.766 49.5059 146.333 49.5059C146.046 49.5059 145.782 49.5674 145.54 49.6904C145.299 49.8089 145.091 49.9867 144.918 50.2236C144.745 50.4606 144.61 50.75 144.515 51.0918C144.419 51.4336 144.371 51.8278 144.371 52.2744V52.5615C144.371 52.9124 144.419 53.2428 144.515 53.5527C144.615 53.8581 144.758 54.127 144.945 54.3594C145.137 54.5918 145.367 54.7741 145.636 54.9062C145.909 55.0384 146.219 55.1045 146.565 55.1045C147.012 55.1045 147.39 55.0133 147.7 54.8311C148.01 54.6488 148.281 54.4049 148.514 54.0996L149.279 54.708C149.12 54.9495 148.917 55.1797 148.671 55.3984C148.425 55.6172 148.122 55.7949 147.762 55.9316C147.406 56.0684 146.985 56.1367 146.497 56.1367ZM155.377 54.291V48.6035H156.648V56H155.438L155.377 54.291ZM155.616 52.7324L156.143 52.7188C156.143 53.2109 156.09 53.6667 155.985 54.0859C155.885 54.5007 155.721 54.8607 155.493 55.166C155.265 55.4714 154.967 55.7106 154.598 55.8838C154.229 56.0524 153.78 56.1367 153.251 56.1367C152.891 56.1367 152.561 56.0843 152.26 55.9795C151.964 55.8747 151.708 55.7129 151.494 55.4941C151.28 55.2754 151.114 54.9906 150.995 54.6396C150.881 54.2887 150.824 53.8672 150.824 53.375V48.6035H152.089V53.3887C152.089 53.7214 152.125 53.9971 152.198 54.2158C152.276 54.43 152.378 54.6009 152.506 54.7285C152.638 54.8516 152.784 54.9382 152.943 54.9883C153.107 55.0384 153.276 55.0635 153.449 55.0635C153.987 55.0635 154.413 54.9609 154.728 54.7559C155.042 54.5462 155.268 54.266 155.404 53.915C155.546 53.5596 155.616 53.1654 155.616 52.7324ZM165.009 55.0977C165.31 55.0977 165.588 55.0361 165.843 54.9131C166.098 54.79 166.308 54.6214 166.472 54.4072C166.636 54.1885 166.729 53.9401 166.752 53.6621H167.955C167.932 54.0996 167.784 54.5075 167.511 54.8857C167.242 55.2594 166.889 55.5625 166.451 55.7949C166.014 56.0228 165.533 56.1367 165.009 56.1367C164.453 56.1367 163.967 56.0387 163.553 55.8428C163.143 55.6468 162.801 55.3779 162.527 55.0361C162.258 54.6943 162.056 54.3024 161.919 53.8604C161.787 53.4137 161.721 52.9421 161.721 52.4453V52.1582C161.721 51.6615 161.787 51.1921 161.919 50.75C162.056 50.3034 162.258 49.9092 162.527 49.5674C162.801 49.2256 163.143 48.9567 163.553 48.7607C163.967 48.5648 164.453 48.4668 165.009 48.4668C165.588 48.4668 166.093 48.5853 166.526 48.8223C166.959 49.0547 167.299 49.3737 167.545 49.7793C167.796 50.1803 167.932 50.6361 167.955 51.1465H166.752C166.729 50.8411 166.643 50.5654 166.492 50.3193C166.346 50.0732 166.146 49.8773 165.891 49.7314C165.64 49.5811 165.346 49.5059 165.009 49.5059C164.621 49.5059 164.296 49.5833 164.031 49.7383C163.771 49.8887 163.564 50.0938 163.409 50.3535C163.259 50.6087 163.149 50.8936 163.081 51.208C163.017 51.5179 162.985 51.8346 162.985 52.1582V52.4453C162.985 52.7689 163.017 53.0879 163.081 53.4023C163.145 53.7168 163.252 54.0016 163.402 54.2568C163.557 54.512 163.765 54.7171 164.024 54.8721C164.289 55.0225 164.617 55.0977 165.009 55.0977ZM169.042 52.3838V52.2266C169.042 51.6934 169.119 51.1989 169.274 50.7432C169.429 50.2829 169.653 49.8841 169.944 49.5469C170.236 49.2051 170.589 48.9408 171.004 48.7539C171.419 48.5625 171.883 48.4668 172.398 48.4668C172.918 48.4668 173.385 48.5625 173.8 48.7539C174.219 48.9408 174.575 49.2051 174.866 49.5469C175.162 49.8841 175.388 50.2829 175.543 50.7432C175.698 51.1989 175.775 51.6934 175.775 52.2266V52.3838C175.775 52.917 175.698 53.4115 175.543 53.8672C175.388 54.3229 175.162 54.7217 174.866 55.0635C174.575 55.4007 174.221 55.665 173.807 55.8564C173.396 56.0433 172.932 56.1367 172.412 56.1367C171.893 56.1367 171.425 56.0433 171.011 55.8564C170.596 55.665 170.241 55.4007 169.944 55.0635C169.653 54.7217 169.429 54.3229 169.274 53.8672C169.119 53.4115 169.042 52.917 169.042 52.3838ZM170.307 52.2266V52.3838C170.307 52.7529 170.35 53.1016 170.437 53.4297C170.523 53.7533 170.653 54.0404 170.826 54.291C171.004 54.5417 171.225 54.7399 171.489 54.8857C171.754 55.027 172.061 55.0977 172.412 55.0977C172.758 55.0977 173.062 55.027 173.321 54.8857C173.586 54.7399 173.804 54.5417 173.978 54.291C174.151 54.0404 174.281 53.7533 174.367 53.4297C174.458 53.1016 174.504 52.7529 174.504 52.3838V52.2266C174.504 51.862 174.458 51.5179 174.367 51.1943C174.281 50.8662 174.148 50.5768 173.971 50.3262C173.798 50.071 173.579 49.8704 173.314 49.7246C173.055 49.5788 172.749 49.5059 172.398 49.5059C172.052 49.5059 171.747 49.5788 171.482 49.7246C171.223 49.8704 171.004 50.071 170.826 50.3262C170.653 50.5768 170.523 50.8662 170.437 51.1943C170.35 51.5179 170.307 51.862 170.307 52.2266ZM178.626 49.7656V56H177.361V48.6035H178.592L178.626 49.7656ZM180.937 48.5625L180.93 49.7383C180.825 49.7155 180.725 49.7018 180.629 49.6973C180.538 49.6882 180.433 49.6836 180.314 49.6836C180.023 49.6836 179.765 49.7292 179.542 49.8203C179.319 49.9115 179.13 50.0391 178.975 50.2031C178.82 50.3672 178.697 50.5632 178.605 50.791C178.519 51.0143 178.462 51.2604 178.435 51.5293L178.079 51.7344C178.079 51.2878 178.122 50.8685 178.209 50.4766C178.3 50.0846 178.439 49.7383 178.626 49.4375C178.813 49.1322 179.05 48.8952 179.337 48.7266C179.629 48.5534 179.975 48.4668 180.376 48.4668C180.467 48.4668 180.572 48.4782 180.69 48.501C180.809 48.5192 180.891 48.5397 180.937 48.5625ZM183.37 50.0254V58.8438H182.099V48.6035H183.261L183.37 50.0254ZM188.354 52.2402V52.3838C188.354 52.9215 188.29 53.4206 188.162 53.8809C188.035 54.3366 187.848 54.7331 187.602 55.0703C187.36 55.4076 187.062 55.6696 186.706 55.8564C186.351 56.0433 185.943 56.1367 185.482 56.1367C185.013 56.1367 184.598 56.0592 184.238 55.9043C183.878 55.7493 183.573 55.5238 183.322 55.2275C183.072 54.9313 182.871 54.5758 182.721 54.1611C182.575 53.7464 182.475 53.2793 182.42 52.7598V51.9941C182.475 51.4473 182.577 50.9574 182.728 50.5244C182.878 50.0915 183.076 49.7223 183.322 49.417C183.573 49.1071 183.876 48.8724 184.231 48.7129C184.587 48.5488 184.997 48.4668 185.462 48.4668C185.927 48.4668 186.339 48.5579 186.699 48.7402C187.059 48.918 187.362 49.1732 187.608 49.5059C187.854 49.8385 188.039 50.2373 188.162 50.7021C188.29 51.1624 188.354 51.6751 188.354 52.2402ZM187.082 52.3838V52.2402C187.082 51.8711 187.043 51.5247 186.966 51.2012C186.888 50.873 186.768 50.5859 186.604 50.3398C186.444 50.0892 186.239 49.8932 185.988 49.752C185.738 49.6061 185.439 49.5332 185.093 49.5332C184.774 49.5332 184.496 49.5879 184.259 49.6973C184.026 49.8066 183.828 49.9548 183.664 50.1416C183.5 50.3239 183.366 50.5335 183.261 50.7705C183.16 51.0029 183.085 51.2445 183.035 51.4951V53.2656C183.126 53.5846 183.254 53.8854 183.418 54.168C183.582 54.446 183.801 54.6715 184.074 54.8447C184.348 55.0133 184.692 55.0977 185.106 55.0977C185.448 55.0977 185.742 55.027 185.988 54.8857C186.239 54.7399 186.444 54.5417 186.604 54.291C186.768 54.0404 186.888 53.7533 186.966 53.4297C187.043 53.1016 187.082 52.7529 187.082 52.3838ZM189.632 52.3838V52.2266C189.632 51.6934 189.709 51.1989 189.864 50.7432C190.019 50.2829 190.243 49.8841 190.534 49.5469C190.826 49.2051 191.179 48.9408 191.594 48.7539C192.008 48.5625 192.473 48.4668 192.988 48.4668C193.508 48.4668 193.975 48.5625 194.39 48.7539C194.809 48.9408 195.164 49.2051 195.456 49.5469C195.752 49.8841 195.978 50.2829 196.133 50.7432C196.288 51.1989 196.365 51.6934 196.365 52.2266V52.3838C196.365 52.917 196.288 53.4115 196.133 53.8672C195.978 54.3229 195.752 54.7217 195.456 55.0635C195.164 55.4007 194.811 55.665 194.396 55.8564C193.986 56.0433 193.521 56.1367 193.002 56.1367C192.482 56.1367 192.015 56.0433 191.601 55.8564C191.186 55.665 190.83 55.4007 190.534 55.0635C190.243 54.7217 190.019 54.3229 189.864 53.8672C189.709 53.4115 189.632 52.917 189.632 52.3838ZM190.896 52.2266V52.3838C190.896 52.7529 190.94 53.1016 191.026 53.4297C191.113 53.7533 191.243 54.0404 191.416 54.291C191.594 54.5417 191.815 54.7399 192.079 54.8857C192.343 55.027 192.651 55.0977 193.002 55.0977C193.348 55.0977 193.651 55.027 193.911 54.8857C194.175 54.7399 194.394 54.5417 194.567 54.291C194.741 54.0404 194.87 53.7533 194.957 53.4297C195.048 53.1016 195.094 52.7529 195.094 52.3838V52.2266C195.094 51.862 195.048 51.5179 194.957 51.1943C194.87 50.8662 194.738 50.5768 194.561 50.3262C194.387 50.071 194.169 49.8704 193.904 49.7246C193.645 49.5788 193.339 49.5059 192.988 49.5059C192.642 49.5059 192.337 49.5788 192.072 49.7246C191.812 49.8704 191.594 50.071 191.416 50.3262C191.243 50.5768 191.113 50.8662 191.026 51.1943C190.94 51.5179 190.896 51.862 190.896 52.2266Z" fill="#E1E1E6"/>
</svg>
